<svg xmlns="http://www.w3.org/2000/svg" width="671" height="1562" viewBox="0 0 671 1562">
<g>
<path d="M 301.00 902.00 L 301.00 1019.00 L 225.67 1019.00 C184.23,1019.00 150.03,1018.70 149.67,1018.33 C149.30,1017.97 149.00,964.64 149.00,899.83 L 149.00 782.00 L 261.06 782.00 L 266.78 784.89 C284.53,793.84 302.82,797.93 328.52,798.70 C360.51,799.65 382.84,795.70 405.10,785.13 L 411.69 782.00 L 521.00 782.00 L 521.00 1019.00 L 370.00 1019.00 L 370.00 903.28 L 375.25 902.65 C378.14,902.30 394.58,902.01 411.78,902.01 C446.59,902.00 448.48,901.71 451.68,895.83 C453.28,892.90 453.50,889.86 453.50,870.32 C453.50,849.37 453.38,847.99 451.40,845.32 C450.25,843.77 448.23,841.94 446.90,841.26 C445.04,840.31 420.02,840.03 335.50,840.02 C229.32,840.01 226.42,840.06 223.31,841.95 C217.70,845.37 217.50,846.39 217.50,871.04 C217.50,891.20 217.69,893.88 219.33,896.38 C222.87,901.78 224.63,902.00 264.47,902.00 Z" fill="rgb(49,154,67)"/>
<path d="M 217.72 1250.12 L 214.50 1255.98 L 149.00 1256.00 L 149.00 899.83 C149.00,964.64 149.30,1017.97 149.67,1018.33 C150.03,1018.70 184.23,1019.00 225.67,1019.00 L 301.00 1019.00 L 301.00 919.38 L 301.23 1016.75 C301.25,1024.78 301.26,1032.27 301.28,1039.26 C301.46,1126.27 301.48,1135.37 305.56,1137.89 C306.37,1138.38 307.33,1138.62 308.48,1139.16 C312.10,1140.82 314.94,1140.98 337.18,1140.75 C360.45,1140.51 362.02,1140.38 364.68,1138.41 C366.23,1137.25 368.04,1134.78 368.69,1132.91 C369.59,1130.35 369.90,1101.33 369.94,1016.39 L 370.00 903.28 L 370.00 1019.00 L 521.00 1019.00 L 521.00 1256.00 L 456.03 1256.00 L 453.62 1251.25 C446.15,1236.57 427.46,1216.03 411.72,1205.19 C401.90,1198.43 383.80,1189.79 373.55,1186.97 C334.10,1176.11 292.40,1182.80 259.01,1205.33 C244.18,1215.34 225.97,1235.09 217.72,1250.12 Z" fill="rgb(56,94,156)"/>
<path d="M 217.72 1250.12 C220.43,1245.17 224.23,1239.71 228.63,1234.26 C215.67,1250.60 207.35,1268.93 202.44,1291.53 C199.77,1303.79 199.98,1330.32 202.84,1343.73 C206.71,1361.84 214.65,1380.14 225.08,1395.00 C232.32,1405.32 248.76,1421.40 259.09,1428.26 C275.77,1439.35 295.45,1447.23 314.50,1450.44 C325.55,1452.31 345.60,1452.32 356.50,1450.46 C385.43,1445.52 410.46,1432.62 431.05,1412.04 C450.04,1393.07 462.35,1370.05 468.14,1342.69 C470.93,1329.51 471.16,1306.92 468.64,1293.24 C466.22,1280.08 461.96,1267.57 456.08,1256.00 L 521.00 1256.00 L 521.00 1493.00 L 335.67 1493.00 C233.73,1493.00 150.03,1492.70 149.67,1492.33 C149.38,1492.05 149.13,1393.12 149.04,1256.00 L 214.50 1255.98 ZM 369.41 1185.90 C370.79,1186.23 372.17,1186.59 373.55,1186.97 C383.80,1189.79 401.90,1198.43 411.72,1205.19 C415.40,1207.73 419.25,1210.80 423.07,1214.20 C414.48,1206.90 404.91,1200.60 394.50,1195.50 C385.71,1191.18 377.64,1188.05 369.41,1185.90 ZM 237.79 1223.82 C244.72,1216.54 252.22,1209.91 259.01,1205.33 C262.74,1202.81 266.58,1200.49 270.51,1198.37 C260.13,1204.15 250.40,1211.46 241.34,1220.26 C240.13,1221.44 238.94,1222.62 237.79,1223.82 ZM 319.78 1182.83 C330.24,1181.60 340.86,1181.56 351.47,1182.73 C346.43,1182.24 341.13,1182.01 335.42,1182.00 C330.11,1182.00 324.90,1182.28 319.78,1182.83 ZM 444.87 1237.69 C448.47,1242.45 451.50,1247.08 453.62,1251.25 L 454.48 1252.95 C451.62,1247.64 448.40,1242.55 444.87,1237.69 Z" fill="rgb(134,23,156)"/>
<path d="M 213.00 146.84 L 213.00 308.75 L 181.67 308.88 C164.44,308.95 150.04,308.71 149.67,308.34 C149.30,307.97 149.00,254.64 149.00,189.83 L 149.00 72.00 L 522.00 72.00 L 522.00 308.73 L 493.57 308.92 C477.93,309.03 463.53,308.81 461.57,308.45 L 458.00 307.78 L 458.00 232.86 L 458.00 227.85 C458.00,161.37 458.00,153.92 454.31,150.69 C453.76,150.20 453.11,149.81 452.38,149.33 C449.86,147.68 447.12,147.50 424.54,147.50 C396.81,147.50 394.17,147.97 391.20,153.39 C389.65,156.23 389.48,163.10 389.23,232.19 L 388.95 307.88 L 384.73 308.48 C382.40,308.81 358.23,308.95 331.00,308.79 L 281.50 308.50 L 281.00 231.96 C280.54,161.24 280.37,155.21 278.75,152.74 C275.42,147.65 274.57,147.52 242.75,147.17 ZM 355.67 1440.98 C325.70,1445.80 295.32,1439.50 268.24,1422.85 C262.05,1419.04 255.94,1413.89 247.02,1404.98 C233.32,1391.27 226.70,1381.79 220.02,1366.28 C208.22,1338.88 206.78,1306.20 216.13,1277.61 C219.18,1268.26 228.64,1249.08 230.55,1248.34 C231.16,1248.11 241.74,1251.84 254.08,1256.63 L 276.50 1265.33 L 289.30 1265.92 L 302.11 1266.50 L 297.54 1270.31 C292.11,1274.84 289.07,1280.36 288.78,1286.22 C288.66,1288.57 288.67,1297.81 288.78,1306.73 L 289.00 1322.97 L 291.83 1326.14 C294.21,1328.80 295.55,1329.38 300.16,1329.76 C306.40,1330.28 311.59,1328.20 316.19,1323.34 C319.42,1319.92 320.24,1317.86 323.58,1304.70 C326.30,1293.94 327.47,1291.58 329.67,1292.43 C332.06,1293.34 404.98,1355.05 406.61,1357.52 C409.48,1361.91 405.88,1368.00 400.43,1368.00 C397.68,1368.00 394.24,1365.55 378.64,1352.50 C359.79,1336.72 356.85,1335.06 353.95,1338.56 C351.58,1341.42 354.20,1344.55 370.26,1358.01 C379.98,1366.16 386.25,1372.14 386.62,1373.61 C387.58,1377.45 386.19,1380.85 382.99,1382.51 C378.93,1384.61 377.77,1383.92 359.55,1368.58 C348.30,1359.11 343.91,1356.00 341.83,1356.00 C338.79,1356.00 336.61,1358.82 337.62,1361.45 C337.95,1362.32 343.82,1367.80 350.65,1373.61 C357.48,1379.42 363.75,1385.21 364.58,1386.48 C366.45,1389.34 365.58,1393.48 362.66,1395.52 C358.18,1398.66 355.74,1397.52 342.06,1385.94 C330.53,1376.17 328.61,1374.91 325.75,1375.19 C322.94,1375.46 322.46,1375.92 322.20,1378.55 C321.93,1381.30 322.79,1382.32 330.93,1389.05 C335.90,1393.15 340.24,1397.48 340.57,1398.68 C341.42,1401.72 340.25,1404.79 337.56,1406.55 C334.68,1408.44 332.01,1407.50 326.32,1402.58 C322.20,1399.02 322.15,1398.90 322.70,1393.65 C323.38,1387.04 321.14,1381.75 316.35,1378.65 C314.10,1377.21 313.22,1376.01 313.66,1375.00 C314.76,1372.44 315.25,1367.12 314.61,1364.58 C313.72,1361.03 309.08,1355.93 305.30,1354.35 C302.53,1353.20 302.00,1352.45 302.00,1349.74 C301.99,1345.55 298.88,1340.51 295.09,1338.55 C291.65,1336.77 283.80,1336.50 280.88,1338.07 C279.22,1338.95 278.25,1338.55 275.00,1335.62 C267.86,1329.16 259.17,1329.84 252.21,1337.39 C246.85,1343.20 245.00,1347.01 245.00,1352.20 C245.01,1357.97 247.96,1362.52 253.41,1365.17 C256.98,1366.91 257.96,1367.96 258.46,1370.63 C259.55,1376.43 266.69,1383.00 271.90,1383.00 C273.30,1383.00 274.48,1384.30 275.83,1387.34 C277.96,1392.15 282.38,1395.44 288.17,1396.51 C290.97,1397.03 292.12,1397.89 293.05,1400.12 C295.65,1406.40 304.22,1409.95 311.09,1407.58 C315.03,1406.22 315.55,1406.26 318.01,1408.01 C319.48,1409.05 321.28,1410.64 322.02,1411.53 C324.27,1414.23 330.69,1417.00 334.73,1417.00 C340.93,1417.00 348.20,1411.81 350.18,1405.97 C350.37,1405.40 351.95,1405.48 354.14,1406.15 C356.15,1406.77 359.41,1406.96 361.45,1406.58 C365.73,1405.77 372.22,1400.31 374.00,1395.99 C375.07,1393.41 375.76,1393.00 379.06,1393.00 C381.15,1393.00 384.14,1392.52 385.68,1391.94 C389.68,1390.43 394.77,1385.22 396.06,1381.32 C397.00,1378.46 397.61,1378.00 400.42,1378.00 C405.40,1378.00 412.16,1373.95 414.73,1369.42 C418.35,1363.07 417.39,1354.65 412.38,1348.92 C411.17,1347.54 411.75,1346.81 417.13,1342.92 C420.49,1340.49 424.88,1336.64 426.87,1334.37 C430.14,1330.65 431.98,1329.73 445.32,1325.12 C453.46,1322.30 460.39,1320.00 460.70,1320.00 C461.54,1320.00 460.10,1334.41 458.50,1341.98 C453.32,1366.59 442.77,1386.12 424.59,1404.80 C406.19,1423.70 381.07,1436.89 355.67,1440.98 ZM 419.07 1328.32 C415.46,1331.79 410.39,1336.06 407.80,1337.82 L 403.11 1341.02 L 393.30 1332.73 C387.91,1328.17 372.36,1315.12 358.75,1303.72 L 334.00 1283.00 L 329.02 1283.00 C324.96,1283.00 323.44,1283.53 320.88,1285.81 C318.18,1288.23 317.26,1290.44 314.43,1301.39 C312.62,1308.40 310.45,1315.19 309.60,1316.48 C308.76,1317.77 306.46,1319.35 304.50,1320.00 C298.30,1322.05 298.00,1321.21 298.00,1301.51 C298.00,1285.71 298.17,1284.05 300.03,1281.69 C302.62,1278.39 326.71,1257.72 329.98,1256.00 C335.59,1253.03 339.06,1253.11 367.54,1256.95 C383.08,1259.05 397.08,1260.55 398.65,1260.28 C400.22,1260.02 409.60,1257.35 419.50,1254.35 C429.40,1251.34 438.25,1248.67 439.18,1248.40 C442.28,1247.50 453.16,1269.83 456.92,1284.82 C459.59,1295.45 461.35,1308.05 460.31,1309.09 C459.83,1309.57 451.84,1312.67 442.55,1315.98 C426.04,1321.87 425.49,1322.16 419.07,1328.32 ZM 318.86 1252.14 L 314.22 1256.00 L 296.36 1255.93 L 278.50 1255.87 L 257.75 1247.79 C246.34,1243.35 237.00,1239.31 237.00,1238.82 C237.00,1236.94 255.85,1219.26 263.29,1214.16 C285.65,1198.84 308.45,1191.76 335.50,1191.76 C367.93,1191.75 394.60,1201.66 418.73,1222.70 C425.61,1228.70 434.58,1238.76 433.77,1239.57 C433.48,1239.85 425.21,1242.57 415.37,1245.62 C407.26,1248.13 403.11,1249.62 398.85,1250.20 C393.25,1250.96 387.43,1250.13 372.09,1247.95 C369.78,1247.62 367.26,1247.26 364.50,1246.88 C334.18,1242.62 329.67,1243.14 318.86,1252.14 ZM 276.21 1372.75 C274.26,1374.28 274.11,1374.28 271.00,1372.71 C269.31,1371.86 268.41,1370.49 268.24,1368.48 C268.02,1366.04 269.35,1363.88 275.62,1356.50 C279.83,1351.55 283.77,1347.17 284.39,1346.77 C288.47,1344.07 294.31,1348.93 292.22,1353.29 C291.03,1355.79 278.64,1370.84 276.21,1372.75 ZM 292.74 1385.25 C291.66,1386.21 290.25,1387.00 289.61,1387.00 C287.19,1387.00 284.00,1383.82 284.00,1381.41 C284.00,1378.22 295.59,1364.15 298.90,1363.31 C302.28,1362.46 304.45,1364.15 304.82,1367.94 C305.09,1370.63 304.25,1372.24 299.92,1377.34 C297.05,1380.73 293.82,1384.29 292.74,1385.25 ZM 265.68 1353.36 C263.30,1355.91 260.85,1358.00 260.24,1358.00 C259.62,1358.00 257.89,1356.95 256.40,1355.67 C253.00,1352.74 253.54,1349.99 258.54,1344.75 C264.06,1338.97 270.00,1340.03 270.00,1346.80 C270.00,1347.86 268.06,1350.81 265.68,1353.36 ZM 309.06 1397.97 C306.50,1399.34 305.84,1399.28 303.22,1397.44 C300.24,1395.35 300.32,1390.99 303.40,1388.10 C308.55,1383.26 315.61,1387.99 312.42,1394.15 C311.63,1395.69 310.11,1397.40 309.06,1397.97 Z" fill="rgb(226,1,43)"/>
<path d="M 224.11 539.25 L 220.85 545.00 L 185.59 545.00 C166.20,545.00 150.03,544.70 149.67,544.33 C149.30,543.97 149.00,437.54 149.00,307.83 L 149.00 189.83 C149.00,254.64 149.30,307.97 149.67,308.34 C150.04,308.71 164.44,308.95 181.67,308.88 L 213.00 308.75 L 213.00 259.41 C213.00,350.75 213.06,364.12 216.50,376.55 C217.11,378.75 217.82,380.93 218.67,383.50 C223.91,399.53 231.04,411.26 242.40,422.53 C259.08,439.08 281.84,449.39 310.86,453.54 C324.67,455.52 356.33,454.76 369.10,452.14 C380.35,449.83 394.79,445.15 402.24,441.39 C432.36,426.21 450.86,400.47 456.46,365.97 C457.23,361.19 457.75,334.37 458.00,301.34 L 458.00 307.78 L 461.57 308.45 C463.53,308.81 477.93,309.03 493.57,308.92 L 521.54 308.73 C521.48,328.35 521.41,348.27 521.33,367.83 L 520.67 545.00 L 449.46 545.00 L 446.13 538.94 C441.76,530.99 432.68,519.64 425.91,513.66 C410.87,500.36 389.59,491.18 365.04,487.39 C349.37,484.98 318.98,485.21 303.98,487.85 C266.28,494.51 239.76,511.57 224.11,539.25 ZM 388.73 307.92 C388.40,357.29 388.03,358.73 386.35,363.17 C378.96,382.70 362.46,392.00 335.21,392.00 C307.80,392.00 290.21,381.48 283.38,361.00 C281.67,355.86 281.52,348.98 281.03,255.50 C280.60,173.96 280.64,157.05 278.30,152.07 C278.45,152.28 278.60,152.51 278.75,152.74 C280.37,155.21 280.54,161.24 281.00,231.96 L 281.50 308.50 L 331.00 308.79 C358.23,308.95 382.40,308.81 384.73,308.48 ZM 457.99 205.44 C457.81,183.16 457.48,165.36 457.00,158.04 C457.81,164.82 457.96,178.02 457.99,205.44 ZM 451.90 149.03 C448.25,147.62 441.27,147.50 425.55,147.50 C445.82,147.51 449.48,147.68 451.90,149.03 ZM 389.44 188.30 C389.67,159.65 390.07,155.45 391.20,153.39 C390.18,155.26 389.75,159.58 389.44,188.30 ZM 276.70 150.17 C276.27,149.87 275.79,149.60 275.26,149.25 C275.22,149.23 275.19,149.20 275.15,149.18 C275.76,149.46 276.26,149.79 276.70,150.17 ZM 455.92 153.04 C455.62,152.40 455.31,151.84 454.95,151.35 C455.32,151.79 455.64,152.33 455.92,153.04 ZM 257.33 147.37 C254.26,147.31 250.63,147.26 246.32,147.21 C250.57,147.26 254.21,147.31 257.33,147.37 Z" fill="rgb(254,130,1)"/>
<path d="M 521.00 960.25 L 521.00 1019.00 L 521.00 782.00 L 411.69 782.00 L 405.10 785.13 C393.51,790.63 381.90,794.34 368.93,796.50 C415.27,788.15 447.30,761.85 457.80,723.07 C460.34,713.68 460.39,712.77 460.75,674.50 C461.15,631.01 460.95,629.29 455.01,625.25 L 451.70 623.00 L 391.89 623.00 C337.37,623.00 330.12,623.00 326.79,626.61 C326.26,627.18 325.83,627.85 325.33,628.62 C323.68,631.14 323.50,633.91 323.50,657.45 L 323.50 683.50 L 392.00 684.03 L 392.00 693.98 C392.00,711.22 385.94,721.51 371.67,728.47 C361.54,733.42 354.33,735.06 340.00,735.69 C324.56,736.38 313.71,734.56 303.55,729.58 C292.37,724.10 285.59,716.51 281.81,705.21 C279.61,698.66 279.55,697.28 279.22,646.63 C278.85,590.09 279.22,584.47 283.97,574.28 C289.69,562.00 299.81,554.36 315.50,550.48 C324.70,548.21 346.90,548.21 355.50,550.48 C371.20,554.62 379.63,561.53 387.03,576.31 C396.28,594.78 396.67,594.87 424.88,585.06 C447.56,577.18 451.92,575.10 454.34,571.00 C456.53,567.30 456.43,563.58 453.98,556.44 C446.29,534.10 431.22,515.36 411.83,503.46 C416.97,506.51 421.69,509.92 425.91,513.66 C432.68,519.64 441.76,530.99 446.13,538.94 L 449.46 545.00 L 520.67 545.00 L 521.33 367.83 C521.37,357.23 521.41,346.51 521.45,335.80 C521.19,477.58 521.00,727.35 521.00,960.25 ZM 224.11 539.25 C230.07,528.71 237.60,519.71 246.73,512.24 C227.55,528.02 215.66,550.25 211.38,578.50 C209.28,592.34 209.43,692.38 211.56,706.77 C216.81,742.12 234.77,768.31 264.23,783.60 L 261.06 782.00 L 149.00 782.00 L 149.00 307.83 C149.00,437.54 149.30,543.97 149.67,544.33 C150.03,544.70 166.20,545.00 185.59,545.00 L 220.85 545.00 ZM 522.00 160.54 L 522.00 72.00 L 522.33 72.00 ZM 296.60 795.28 C285.82,793.04 276.22,789.65 266.78,784.89 L 266.53 784.76 C275.44,789.12 285.98,792.78 296.60,795.28 ZM 302.35 488.15 C302.89,488.05 303.43,487.95 303.98,487.85 C318.96,485.21 349.31,484.98 364.99,487.39 C356.43,486.22 346.96,485.78 335.00,485.80 C322.80,485.81 312.10,486.56 302.35,488.15 Z" fill="rgb(254,208,1)"/>
<path d="M 0.00 781.00 L 0.00 0.00 L 335.50 0.00 L 671.00 0.00 L 671.00 781.00 L 671.00 1562.00 L 335.50 1562.00 L 0.00 1562.00 L 0.00 781.00 ZM 521.00 960.25 C521.00,667.24 521.30,347.51 521.67,249.75 L 522.33 72.00 L 335.67 72.00 L 149.00 72.00 L 149.00 781.83 C149.00,1172.24 149.30,1491.97 149.67,1492.33 C150.03,1492.70 233.73,1493.00 335.67,1493.00 L 521.00 1493.00 L 521.00 960.25 ZM 314.50 1450.44 C295.45,1447.23 275.77,1439.35 259.09,1428.26 C248.76,1421.40 232.32,1405.32 225.08,1395.00 C214.65,1380.14 206.71,1361.84 202.84,1343.73 C199.98,1330.32 199.77,1303.79 202.44,1291.53 C208.80,1262.26 220.87,1240.16 241.34,1220.26 C267.43,1194.90 299.17,1181.99 335.42,1182.00 C358.35,1182.01 374.55,1185.71 394.50,1195.50 C433.57,1214.66 460.77,1250.53 468.64,1293.24 C471.16,1306.92 470.93,1329.51 468.14,1342.69 C462.35,1370.05 450.04,1393.07 431.05,1412.04 C410.46,1432.62 385.43,1445.52 356.50,1450.46 C345.60,1452.32 325.55,1452.31 314.50,1450.44 ZM 355.67 1440.98 C381.07,1436.89 406.19,1423.70 424.59,1404.80 C442.77,1386.12 453.32,1366.59 458.50,1341.98 C460.10,1334.41 461.54,1320.00 460.70,1320.00 C460.39,1320.00 453.46,1322.30 445.32,1325.12 C431.98,1329.73 430.14,1330.65 426.87,1334.37 C424.88,1336.64 420.49,1340.49 417.13,1342.92 C411.75,1346.81 411.17,1347.54 412.38,1348.92 C417.39,1354.65 418.35,1363.07 414.73,1369.42 C412.16,1373.95 405.40,1378.00 400.42,1378.00 C397.61,1378.00 397.00,1378.46 396.06,1381.32 C394.77,1385.22 389.68,1390.43 385.68,1391.94 C384.14,1392.52 381.15,1393.00 379.06,1393.00 C375.76,1393.00 375.07,1393.41 374.00,1395.99 C372.22,1400.31 365.73,1405.77 361.45,1406.58 C359.41,1406.96 356.15,1406.77 354.14,1406.15 C351.95,1405.48 350.37,1405.40 350.18,1405.97 C348.20,1411.81 340.93,1417.00 334.73,1417.00 C330.69,1417.00 324.27,1414.23 322.02,1411.53 C321.28,1410.64 319.48,1409.05 318.01,1408.01 C315.55,1406.26 315.03,1406.22 311.09,1407.58 C304.22,1409.95 295.65,1406.40 293.05,1400.12 C292.12,1397.89 290.97,1397.03 288.17,1396.51 C282.38,1395.44 277.96,1392.15 275.83,1387.34 C274.48,1384.30 273.30,1383.00 271.90,1383.00 C266.69,1383.00 259.55,1376.43 258.46,1370.63 C257.96,1367.96 256.98,1366.91 253.41,1365.17 C247.96,1362.52 245.01,1357.97 245.00,1352.20 C245.00,1347.01 246.85,1343.20 252.21,1337.39 C259.17,1329.84 267.86,1329.16 275.00,1335.62 C278.25,1338.55 279.22,1338.95 280.88,1338.07 C283.80,1336.50 291.65,1336.77 295.09,1338.55 C298.88,1340.51 301.99,1345.55 302.00,1349.74 C302.00,1352.45 302.53,1353.20 305.30,1354.35 C309.08,1355.93 313.72,1361.03 314.61,1364.58 C315.25,1367.12 314.76,1372.44 313.66,1375.00 C313.22,1376.01 314.10,1377.21 316.35,1378.65 C321.14,1381.75 323.38,1387.04 322.70,1393.65 C322.15,1398.90 322.20,1399.02 326.32,1402.58 C332.01,1407.50 334.68,1408.44 337.56,1406.55 C340.25,1404.79 341.42,1401.72 340.57,1398.68 C340.24,1397.48 335.90,1393.15 330.93,1389.05 C322.79,1382.32 321.93,1381.30 322.20,1378.55 C322.46,1375.92 322.94,1375.46 325.75,1375.19 C328.61,1374.91 330.53,1376.17 342.06,1385.94 C355.74,1397.52 358.18,1398.66 362.66,1395.52 C365.58,1393.48 366.45,1389.34 364.58,1386.48 C363.75,1385.21 357.48,1379.42 350.65,1373.61 C343.82,1367.80 337.95,1362.32 337.62,1361.45 C336.61,1358.82 338.79,1356.00 341.83,1356.00 C343.91,1356.00 348.30,1359.11 359.55,1368.58 C377.77,1383.92 378.93,1384.61 382.99,1382.51 C386.19,1380.85 387.58,1377.45 386.62,1373.61 C386.25,1372.14 379.98,1366.16 370.26,1358.01 C354.20,1344.55 351.58,1341.42 353.95,1338.56 C356.85,1335.06 359.79,1336.72 378.64,1352.50 C394.24,1365.55 397.68,1368.00 400.43,1368.00 C405.88,1368.00 409.48,1361.91 406.61,1357.52 C404.98,1355.05 332.06,1293.34 329.67,1292.43 C327.47,1291.58 326.30,1293.94 323.58,1304.70 C320.24,1317.86 319.42,1319.92 316.19,1323.34 C311.59,1328.20 306.40,1330.28 300.16,1329.76 C295.55,1329.38 294.21,1328.80 291.83,1326.14 L 289.00 1322.97 L 288.78 1306.73 C288.67,1297.81 288.66,1288.57 288.78,1286.22 C289.07,1280.36 292.11,1274.84 297.54,1270.31 L 302.11 1266.50 L 289.30 1265.92 L 276.50 1265.33 L 254.08 1256.63 C241.74,1251.84 231.16,1248.11 230.55,1248.34 C228.64,1249.08 219.18,1268.26 216.13,1277.61 C206.78,1306.20 208.22,1338.88 220.02,1366.28 C226.70,1381.79 233.32,1391.27 247.02,1404.98 C255.94,1413.89 262.05,1419.04 268.24,1422.85 C295.32,1439.50 325.70,1445.80 355.67,1440.98 ZM 309.06 1397.97 C310.11,1397.40 311.63,1395.69 312.42,1394.15 C315.61,1387.99 308.55,1383.26 303.40,1388.10 C300.32,1390.99 300.24,1395.35 303.22,1397.44 C305.84,1399.28 306.50,1399.34 309.06,1397.97 ZM 292.74 1385.25 C293.82,1384.29 297.05,1380.73 299.92,1377.34 C304.25,1372.24 305.09,1370.63 304.82,1367.94 C304.45,1364.15 302.28,1362.46 298.90,1363.31 C295.59,1364.15 284.00,1378.22 284.00,1381.41 C284.00,1383.82 287.19,1387.00 289.61,1387.00 C290.25,1387.00 291.66,1386.21 292.74,1385.25 ZM 276.21 1372.75 C278.64,1370.84 291.03,1355.79 292.22,1353.29 C294.31,1348.93 288.47,1344.07 284.39,1346.77 C283.77,1347.17 279.83,1351.55 275.62,1356.50 C269.35,1363.88 268.02,1366.04 268.24,1368.48 C268.41,1370.49 269.31,1371.86 271.00,1372.71 C274.11,1374.28 274.26,1374.28 276.21,1372.75 ZM 265.68 1353.36 C268.06,1350.81 270.00,1347.86 270.00,1346.80 C270.00,1340.03 264.06,1338.97 258.54,1344.75 C253.54,1349.99 253.00,1352.74 256.40,1355.67 C257.89,1356.95 259.62,1358.00 260.24,1358.00 C260.85,1358.00 263.30,1355.91 265.68,1353.36 ZM 419.07 1328.32 C425.49,1322.16 426.04,1321.87 442.55,1315.98 C451.84,1312.67 459.83,1309.57 460.31,1309.09 C461.35,1308.05 459.59,1295.45 456.92,1284.82 C453.16,1269.83 442.28,1247.50 439.18,1248.40 C438.25,1248.67 429.40,1251.34 419.50,1254.35 C409.60,1257.35 400.22,1260.02 398.65,1260.28 C397.08,1260.55 383.08,1259.05 367.54,1256.95 C339.06,1253.11 335.59,1253.03 329.98,1256.00 C326.71,1257.72 302.62,1278.39 300.03,1281.69 C298.17,1284.05 298.00,1285.71 298.00,1301.51 C298.00,1321.21 298.30,1322.05 304.50,1320.00 C306.46,1319.35 308.76,1317.77 309.60,1316.48 C310.45,1315.19 312.62,1308.40 314.43,1301.39 C317.26,1290.44 318.18,1288.23 320.88,1285.81 C323.44,1283.53 324.96,1283.00 329.02,1283.00 L 334.00 1283.00 L 358.75 1303.72 C372.36,1315.12 387.91,1328.17 393.30,1332.73 L 403.11 1341.02 L 407.80 1337.82 C410.39,1336.06 415.46,1331.79 419.07,1328.32 ZM 318.86 1252.14 C329.67,1243.14 334.18,1242.62 364.50,1246.88 C399.69,1251.81 394.98,1251.93 415.37,1245.62 C425.21,1242.57 433.48,1239.85 433.77,1239.57 C434.58,1238.76 425.61,1228.70 418.73,1222.70 C394.60,1201.66 367.93,1191.75 335.50,1191.76 C308.45,1191.76 285.65,1198.84 263.29,1214.16 C255.85,1219.26 237.00,1236.94 237.00,1238.82 C237.00,1239.31 246.34,1243.35 257.75,1247.79 L 278.50 1255.87 L 296.36 1255.93 L 314.22 1256.00 L 318.86 1252.14 ZM 308.48 1139.16 C301.01,1135.72 301.53,1144.47 301.23,1016.75 L 300.96 902.00 L 264.45 902.00 C224.63,902.00 222.87,901.78 219.33,896.38 C217.69,893.88 217.50,891.20 217.50,871.04 C217.50,846.39 217.70,845.37 223.31,841.95 C226.42,840.06 229.32,840.01 335.50,840.02 C420.02,840.03 445.04,840.31 446.90,841.26 C448.23,841.94 450.25,843.77 451.40,845.32 C453.38,847.99 453.50,849.37 453.50,870.32 C453.50,889.86 453.28,892.90 451.68,895.83 C448.48,901.71 446.59,902.00 411.78,902.01 C394.58,902.01 378.14,902.30 375.25,902.65 L 370.00 903.28 L 369.94 1016.39 C369.90,1101.33 369.59,1130.35 368.69,1132.91 C368.04,1134.78 366.23,1137.25 364.68,1138.41 C362.02,1140.38 360.45,1140.51 337.18,1140.75 C314.94,1140.98 312.10,1140.82 308.48,1139.16 ZM 311.00 797.91 C295.53,795.93 278.62,790.85 265.50,784.25 C235.28,769.05 216.89,742.63 211.56,706.77 C209.43,692.38 209.28,592.34 211.38,578.50 C217.09,540.77 236.39,513.77 268.50,498.55 C287.23,489.67 307.24,485.83 335.00,485.80 C362.19,485.76 376.52,488.10 396.51,495.85 C423.22,506.21 444.37,528.51 453.98,556.44 C456.43,563.58 456.53,567.30 454.34,571.00 C451.92,575.10 447.56,577.18 424.88,585.06 C396.67,594.87 396.28,594.78 387.03,576.31 C379.63,561.53 371.20,554.62 355.50,550.48 C346.90,548.21 324.70,548.21 315.50,550.48 C299.81,554.36 289.69,562.00 283.97,574.28 C279.22,584.47 278.85,590.09 279.22,646.63 C279.55,697.28 279.61,698.66 281.81,705.21 C285.59,716.51 292.37,724.10 303.55,729.58 C313.71,734.56 324.56,736.38 340.00,735.69 C354.33,735.06 361.54,733.42 371.67,728.47 C385.94,721.51 392.00,711.22 392.00,693.98 L 392.00 684.03 L 357.75 683.76 L 323.50 683.50 L 323.50 657.45 C323.50,633.91 323.68,631.14 325.33,628.62 C329.03,622.97 328.70,623.00 392.82,623.00 L 451.70 623.00 L 455.01 625.25 C460.95,629.29 461.15,631.01 460.75,674.50 C460.39,712.77 460.34,713.68 457.80,723.07 C446.57,764.55 410.70,791.76 359.03,797.98 C349.18,799.17 320.45,799.13 311.00,797.91 ZM 310.86 453.54 C281.84,449.39 259.08,439.08 242.40,422.53 C231.04,411.26 223.91,399.53 218.67,383.50 C212.96,366.04 213.00,366.98 213.00,252.29 L 213.00 146.84 L 242.80 147.17 C269.14,147.46 272.90,147.70 275.26,149.25 C280.72,152.83 280.46,148.05 281.03,255.50 C281.52,348.98 281.67,355.86 283.38,361.00 C290.21,381.48 307.80,392.00 335.21,392.00 C362.46,392.00 378.96,382.70 386.35,363.17 C388.48,357.54 388.50,356.74 389.00,257.00 C389.46,164.81 389.64,156.24 391.20,153.39 C394.17,147.97 396.81,147.50 424.54,147.50 C452.55,147.50 453.75,147.76 456.58,154.55 C458.78,159.81 458.67,352.34 456.46,365.97 C450.86,400.47 432.36,426.21 402.24,441.39 C394.79,445.15 380.35,449.83 369.10,452.14 C356.33,454.76 324.67,455.52 310.86,453.54 Z" fill="rgb(254,254,254)"/>
</g>
</svg>